<svg xmlns="http://www.w3.org/2000/svg" viewBox="0 0 691.38 460.38"><defs><style>.cls-1{fill:#58595b;}.cls-2,.cls-4{fill:#878787;}.cls-3{fill:#383838;}.cls-4{font-size:31.43px;font-family:Lato-Black, Lato;}</style></defs><title>CDC_Logo_fullbnw</title><g id="Layer_2" data-name="Layer 2"><g id="Layer_2-2" data-name="Layer 2"><path class="cls-1" d="M464.49,89.21H234.18V0h89.21A156.11,156.11,0,0,1,464.49,89.21Z" transform="translate(0)"/><path class="cls-1" d="M479.51,156.12a156.31,156.31,0,0,1-6.46,44.6H234.18V111.51H473.05A156.43,156.43,0,0,1,479.51,156.12Z" transform="translate(0)"/><path class="cls-1" d="M464.49,223a156.13,156.13,0,0,1-141.1,89.21H234.18V223Z" transform="translate(0)"/><path class="cls-2" d="M483.37,156.12a156.31,156.31,0,0,0,6.46,44.6H400.62a157.22,157.22,0,0,1,0-89.21h89.21A156.43,156.43,0,0,0,483.37,156.12Z" transform="translate(0)"/><path class="cls-2" d="M691.38,223a156.61,156.61,0,0,1-96.48,82.75h0A156.36,156.36,0,0,1,409.18,223Z" transform="translate(0)"/><path class="cls-2" d="M691.38,89.21H409.18A156.36,156.36,0,0,1,594.87,6.46h0A156.61,156.61,0,0,1,691.38,89.21Z" transform="translate(0)"/><path class="cls-3" d="M89.21,156.12a156.31,156.31,0,0,0,6.46,44.6H6.46a157.22,157.22,0,0,1,0-89.21H95.67A156.43,156.43,0,0,0,89.21,156.12Z" transform="translate(0)"/><path class="cls-3" d="M297.22,223a156.63,156.63,0,0,1-96.48,82.75h0A156.36,156.36,0,0,1,15,223Z" transform="translate(0)"/><path class="cls-3" d="M297.22,89.21H15A156.36,156.36,0,0,1,200.71,6.46h0A156.63,156.63,0,0,1,297.22,89.21Z" transform="translate(0)"/><path class="cls-3" d="M22,402.22a21.66,21.66,0,0,1-10.82-2.59A17.87,17.87,0,0,1,4,392.26,23.88,23.88,0,0,1,1.53,381v-1.44a24.06,24.06,0,0,1,2.42-11,18.23,18.23,0,0,1,6.9-7.52,20.15,20.15,0,0,1,10.68-2.73,26.28,26.28,0,0,1,8.14,1.23,20.26,20.26,0,0,1,6.79,3.76v10.32H30.09l-.88-6.48a10.59,10.59,0,0,0-2.11-1.2,11.77,11.77,0,0,0-2.48-.76,14.56,14.56,0,0,0-2.89-.27,10.79,10.79,0,0,0-6.24,1.79,11.34,11.34,0,0,0-4,5.06,19.71,19.71,0,0,0-1.39,7.76V381a18.9,18.9,0,0,0,1.47,7.77,11.64,11.64,0,0,0,4.16,5.09,11.26,11.26,0,0,0,6.4,1.8,16.89,16.89,0,0,0,3.71-.42,18.88,18.88,0,0,0,3.38-1.1l.88-6h6.37v10.21a23.67,23.67,0,0,1-6.22,2.77A28.51,28.51,0,0,1,22,402.22Z" transform="translate(0)"/><path class="cls-3" d="M50.3,402.22a10.71,10.71,0,0,1-7.51-2.54,8.89,8.89,0,0,1-2.78-6.9,8.69,8.69,0,0,1,1.63-5.25A10.63,10.63,0,0,1,46.45,384a20.91,20.91,0,0,1,7.84-1.29h4.2v-2.35a4.79,4.79,0,0,0-5.34-5.13,8.42,8.42,0,0,0-2.46.33,7.7,7.7,0,0,0-2,1L48,380.69H41.86l-.12-8.24a26.65,26.65,0,0,1,5.4-2.29,22.47,22.47,0,0,1,6.48-.88q6.21,0,9.83,2.89a10,10,0,0,1,3.6,8.26v13.08c0,.43,0,.86,0,1.28a9.4,9.4,0,0,0,.1,1.21l3.31.47v5.14H59.87c-.22-.55-.43-1.14-.65-1.76a12,12,0,0,1-.47-1.88,12,12,0,0,1-3.59,3.09A9.71,9.71,0,0,1,50.3,402.22Zm2.29-6.33a7.47,7.47,0,0,0,3.4-.81,6.34,6.34,0,0,0,2.5-2.13v-5H54.26A6.22,6.22,0,0,0,50,389.23a4,4,0,0,0-1.46,3.11A3.25,3.25,0,0,0,49.62,395,4.37,4.37,0,0,0,52.59,395.89Z" transform="translate(0)"/><path class="cls-3" d="M73.54,401.61v-5.14l4.1-.88V375.91L73.09,375v-5.16H85.62l.32,3.93.06.7a9.89,9.89,0,0,1,2.91-3.9A6.6,6.6,0,0,1,93,369.28a12.84,12.84,0,0,1,1.67.13,11.73,11.73,0,0,1,1.62.34l-.91,7.89-4.26-.23a5,5,0,0,0-2.94.61,6.6,6.6,0,0,0-2,2v15.54l4.1.88v5.14Z" transform="translate(0)"/><path class="cls-3" d="M112.55,402.22a15.32,15.32,0,0,1-8-2,13.76,13.76,0,0,1-5.27-5.53,16.9,16.9,0,0,1-1.86-8v-1.18a19.1,19.1,0,0,1,1.76-8.37,13.88,13.88,0,0,1,5-5.75,13.37,13.37,0,0,1,7.58-2.07A14.3,14.3,0,0,1,119,371a11.06,11.06,0,0,1,4.46,4.9,18,18,0,0,1,1.52,7.75v4.66H106.36l-.06.17a9.49,9.49,0,0,0,1,3.71,6.36,6.36,0,0,0,2.45,2.56,7.55,7.55,0,0,0,3.84.92,15.48,15.48,0,0,0,4.39-.6,16.84,16.84,0,0,0,4-1.77l2.32,5.27a16.35,16.35,0,0,1-4.94,2.63A20.75,20.75,0,0,1,112.55,402.22Zm-6.13-19.59H117v-.76a9.64,9.64,0,0,0-.51-3.33,4.33,4.33,0,0,0-1.64-2.16,5.11,5.11,0,0,0-2.92-.76,4.63,4.63,0,0,0-2.87.89,5.85,5.85,0,0,0-1.84,2.45,12.7,12.7,0,0,0-.89,3.52Z" transform="translate(0)"/><path class="cls-3" d="M144.49,402.22a15.35,15.35,0,0,1-8-2,13.82,13.82,0,0,1-5.27-5.53,16.9,16.9,0,0,1-1.86-8v-1.18a19.1,19.1,0,0,1,1.76-8.37,14,14,0,0,1,5-5.75,13.4,13.4,0,0,1,7.59-2.07A14.26,14.26,0,0,1,151,371a11,11,0,0,1,4.46,4.9,17.82,17.82,0,0,1,1.53,7.75v4.66H138.3l-.06.17a9.66,9.66,0,0,0,1,3.71,6.42,6.42,0,0,0,2.45,2.56,7.58,7.58,0,0,0,3.84.92,15.48,15.48,0,0,0,4.39-.6,16.84,16.84,0,0,0,4-1.77l2.32,5.27a16.35,16.35,0,0,1-4.94,2.63A20.75,20.75,0,0,1,144.49,402.22Zm-6.13-19.59H149v-.76a9.39,9.39,0,0,0-.52-3.33,4.33,4.33,0,0,0-1.64-2.16,5.09,5.09,0,0,0-2.92-.76,4.63,4.63,0,0,0-2.87.89,5.91,5.91,0,0,0-1.83,2.45,13.06,13.06,0,0,0-.9,3.52Z" transform="translate(0)"/><path class="cls-3" d="M161,401.61v-5.14l4.11-.88V375.91l-4.55-.88v-5.16h12.53l.32,3.93.06.7a10,10,0,0,1,2.9-3.9,6.65,6.65,0,0,1,4.14-1.32,13,13,0,0,1,1.67.13,11.57,11.57,0,0,1,1.61.34l-.91,7.89-4.25-.23a5,5,0,0,0-2.95.61,6.82,6.82,0,0,0-2,2v15.54l4.11.88v5.14Z" transform="translate(0)"/><path class="cls-3" d="M200.13,401.61v-5.14l4.61-1V365.06l-4.61-1V358.9h18.74A18.85,18.85,0,0,1,229,361.58a18.45,18.45,0,0,1,6.82,7.42,23.25,23.25,0,0,1,2.45,10.87v.79a23.35,23.35,0,0,1-2.42,10.81,18.37,18.37,0,0,1-6.76,7.44,18.65,18.65,0,0,1-10.06,2.7Zm13.17-6.55h5.25a9.67,9.67,0,0,0,6-1.86,11.63,11.63,0,0,0,3.77-5.12,19.8,19.8,0,0,0,1.31-7.42v-.82a19.86,19.86,0,0,0-1.31-7.46,11.45,11.45,0,0,0-3.77-5.08,9.78,9.78,0,0,0-6-1.83H213.3Z" transform="translate(0)"/><path class="cls-3" d="M255.3,402.22a15.29,15.29,0,0,1-7.94-2,13.76,13.76,0,0,1-5.27-5.53,16.9,16.9,0,0,1-1.86-8v-1.18A19,19,0,0,1,242,377.1a13.88,13.88,0,0,1,5-5.75,13.37,13.37,0,0,1,7.58-2.07,14.3,14.3,0,0,1,7.25,1.7,11.06,11.06,0,0,1,4.46,4.9,18,18,0,0,1,1.52,7.75v4.66H249.12l-.06.17a9.32,9.32,0,0,0,1,3.71,6.29,6.29,0,0,0,2.45,2.56,7.53,7.53,0,0,0,3.84.92,15.53,15.53,0,0,0,4.39-.6,17,17,0,0,0,4-1.77l2.32,5.27a16.29,16.29,0,0,1-4.95,2.63A20.66,20.66,0,0,1,255.3,402.22Zm-6.13-19.59h10.59v-.76a9.64,9.64,0,0,0-.51-3.33,4.33,4.33,0,0,0-1.64-2.16,5.13,5.13,0,0,0-2.92-.76,4.66,4.66,0,0,0-2.88.89A5.91,5.91,0,0,0,250,379a12.7,12.7,0,0,0-.89,3.52Z" transform="translate(0)"/><path class="cls-3" d="M282.32,401.61l-9.59-26.05L269.3,375v-5.16h15.4V375l-3.35.59,4.78,14.4.74,2.46H287l.82-2.46,5.25-14.37-3.9-.62v-5.13h15.37V375l-3.52.59-10,26Z" transform="translate(0)"/><path class="cls-3" d="M320.33,402.22a15.35,15.35,0,0,1-7.95-2,13.8,13.8,0,0,1-5.26-5.53,16.9,16.9,0,0,1-1.86-8v-1.18A19,19,0,0,1,307,377.1a13.88,13.88,0,0,1,5-5.75,13.37,13.37,0,0,1,7.58-2.07,14.3,14.3,0,0,1,7.25,1.7,11,11,0,0,1,4.45,4.9,17.82,17.82,0,0,1,1.53,7.75v4.66H314.14l-.06.17a9.49,9.49,0,0,0,1.05,3.71,6.29,6.29,0,0,0,2.45,2.56,7.53,7.53,0,0,0,3.84.92,15.46,15.46,0,0,0,4.38-.6,16.9,16.9,0,0,0,4-1.77l2.31,5.27a16.11,16.11,0,0,1-4.94,2.63A20.71,20.71,0,0,1,320.33,402.22Zm-6.13-19.59h10.59v-.76a9.64,9.64,0,0,0-.51-3.33,4.33,4.33,0,0,0-1.64-2.16,5.13,5.13,0,0,0-2.92-.76,4.64,4.64,0,0,0-2.88.89A5.91,5.91,0,0,0,315,379a13.06,13.06,0,0,0-.9,3.52Z" transform="translate(0)"/><path class="cls-3" d="M335.73,401.61v-5.14l4.14-.88v-33.7l-4.58-.88v-5.16h13.14v39.74l4.14.88v5.14Z" transform="translate(0)"/><path class="cls-3" d="M369.9,402.22a15.21,15.21,0,0,1-8.06-2.05,13.41,13.41,0,0,1-5.16-5.71,18.73,18.73,0,0,1-1.79-8.4v-.62a18.69,18.69,0,0,1,1.79-8.37,13.51,13.51,0,0,1,5.14-5.72,16.67,16.67,0,0,1,16.09,0,13.62,13.62,0,0,1,5.13,5.7,18.72,18.72,0,0,1,1.79,8.39v.62a18.73,18.73,0,0,1-1.79,8.4,13.47,13.47,0,0,1-5.13,5.71A15,15,0,0,1,369.9,402.22Zm0-6.57a5.41,5.41,0,0,0,3.64-1.2,7,7,0,0,0,2.08-3.36,16.86,16.86,0,0,0,.68-5v-.62a16.68,16.68,0,0,0-.68-5,7.13,7.13,0,0,0-2.09-3.37,6.1,6.1,0,0,0-7.32,0,6.92,6.92,0,0,0-2.1,3.37,17,17,0,0,0-.66,5v.62a17.3,17.3,0,0,0,.66,5,6.75,6.75,0,0,0,2.1,3.36A5.56,5.56,0,0,0,369.9,395.65Z" transform="translate(0)"/><path class="cls-3" d="M387.53,413.81v-5.16l4.14-.88V375.91l-4.58-.88v-5.16h12.44l.41,3.69a10.11,10.11,0,0,1,3.4-3.16,9.54,9.54,0,0,1,4.75-1.12,10.42,10.42,0,0,1,6.57,2.1,13.1,13.1,0,0,1,4.18,5.85A24.2,24.2,0,0,1,420.3,386v.62a21.29,21.29,0,0,1-1.46,8.2,12.19,12.19,0,0,1-4.19,5.45,11.11,11.11,0,0,1-6.61,2,10.5,10.5,0,0,1-4.51-.92,9.06,9.06,0,0,1-3.33-2.72v9.19l4.14.88v5.16Zm18-18.16a5.17,5.17,0,0,0,4.77-2.43,12.66,12.66,0,0,0,1.48-6.6V386a18.32,18.32,0,0,0-.67-5.26,7.59,7.59,0,0,0-2.07-3.52,5.09,5.09,0,0,0-3.57-1.28,5.92,5.92,0,0,0-3.09.79A5.74,5.74,0,0,0,400.2,379v13.9a5.34,5.34,0,0,0,2.13,2.06A6.65,6.65,0,0,0,405.48,395.65Z" transform="translate(0)"/><path class="cls-3" d="M422.53,401.61v-5.14l4.13-.88V375.91l-4.57-.88v-5.16h12.52l.35,4.19a10.68,10.68,0,0,1,3.83-3.53,11,11,0,0,1,5.32-1.25,9.77,9.77,0,0,1,5.24,1.35,8.11,8.11,0,0,1,3.27,4.08,11.07,11.07,0,0,1,3.81-4,10.37,10.37,0,0,1,5.52-1.44,9.2,9.2,0,0,1,7.4,3.2q2.72,3.19,2.72,9.74v13.37l4.13.88v5.14H459.81v-5.14l3.69-.88v-13.4c0-2.35-.38-4-1.16-4.89a4.14,4.14,0,0,0-3.35-1.36,5.19,5.19,0,0,0-3.38,1.13,6.27,6.27,0,0,0-2,3v15.54l3.46.88v5.14H441.62v-5.14l3.46-.88v-13.4c0-2.29-.38-3.9-1.16-4.84a4.16,4.16,0,0,0-3.41-1.41,6.34,6.34,0,0,0-3.14.73,5.87,5.87,0,0,0-2.17,2.12v16.8l3.69.88v5.14Z" transform="translate(0)"/><path class="cls-3" d="M495.59,402.22a15.35,15.35,0,0,1-7.95-2,13.73,13.73,0,0,1-5.26-5.53,16.9,16.9,0,0,1-1.87-8v-1.18a19.1,19.1,0,0,1,1.76-8.37,14,14,0,0,1,5-5.75,13.37,13.37,0,0,1,7.58-2.07,14.26,14.26,0,0,1,7.24,1.7,11,11,0,0,1,4.46,4.9,17.82,17.82,0,0,1,1.53,7.75v4.66H489.4l-.06.17a9.66,9.66,0,0,0,1,3.71,6.42,6.42,0,0,0,2.45,2.56,7.59,7.59,0,0,0,3.85.92,15.46,15.46,0,0,0,4.38-.6,16.9,16.9,0,0,0,4-1.77l2.31,5.27a16.23,16.23,0,0,1-4.94,2.63A20.71,20.71,0,0,1,495.59,402.22Zm-6.13-19.59h10.59v-.76a9.64,9.64,0,0,0-.51-3.33,4.35,4.35,0,0,0-1.65-2.16,5.07,5.07,0,0,0-2.91-.76,4.64,4.64,0,0,0-2.88.89,5.91,5.91,0,0,0-1.83,2.45,13.06,13.06,0,0,0-.9,3.52Z" transform="translate(0)"/><path class="cls-3" d="M511.14,401.61v-5.14l4.1-.88V375.91L510.7,375v-5.16h12.52l.38,4.55a11.52,11.52,0,0,1,3.92-3.79,10.42,10.42,0,0,1,5.32-1.35,9.34,9.34,0,0,1,7.39,3q2.67,3,2.67,9.48v13.81l4.11.88v5.14H530.64v-5.14l3.67-.88V381.81c0-2.13-.42-3.64-1.26-4.54a4.92,4.92,0,0,0-3.76-1.33,6.36,6.36,0,0,0-3.21.78,6.47,6.47,0,0,0-2.27,2.21v16.66l3.46.88v5.14Z" transform="translate(0)"/><path class="cls-3" d="M562.15,402.22q-4.44,0-6.82-2.43t-2.4-7.72V375.88h-4.37v-6h4.37V362.1h8.54v7.77h5.84v6h-5.84V392a3.65,3.65,0,0,0,.78,2.64,2.83,2.83,0,0,0,2.12.8,11.87,11.87,0,0,0,1.54-.11c.54-.07,1-.14,1.4-.22l.73,6.19a22,22,0,0,1-2.86.63A18.57,18.57,0,0,1,562.15,402.22Z" transform="translate(0)"/><path class="cls-3" d="M606.14,402.22a21.69,21.69,0,0,1-10.82-2.59,17.79,17.79,0,0,1-7.11-7.37A23.88,23.88,0,0,1,585.7,381v-1.44a24.19,24.19,0,0,1,2.42-11A18.19,18.19,0,0,1,595,361a20.14,20.14,0,0,1,10.67-2.73,26.23,26.23,0,0,1,8.14,1.23,20.07,20.07,0,0,1,6.79,3.76v10.32h-6.36l-.88-6.48a11.19,11.19,0,0,0-2.11-1.2,12,12,0,0,0-2.48-.76,14.63,14.63,0,0,0-2.89-.27,10.8,10.8,0,0,0-6.25,1.79,11.32,11.32,0,0,0-4,5.06,19.7,19.7,0,0,0-1.4,7.76V381a18.9,18.9,0,0,0,1.47,7.77,11.72,11.72,0,0,0,4.17,5.09,11.23,11.23,0,0,0,6.39,1.8,16.82,16.82,0,0,0,3.71-.42,19.26,19.26,0,0,0,3.39-1.1l.88-6h6.36v10.21a23.6,23.6,0,0,1-6.21,2.77A28.63,28.63,0,0,1,606.14,402.22Z" transform="translate(0)"/><path class="cls-3" d="M639.05,402.22a15.35,15.35,0,0,1-7.95-2,13.8,13.8,0,0,1-5.26-5.53,16.9,16.9,0,0,1-1.86-8v-1.18a19,19,0,0,1,1.76-8.37,13.88,13.88,0,0,1,5-5.75,13.37,13.37,0,0,1,7.58-2.07,14.3,14.3,0,0,1,7.25,1.7,11,11,0,0,1,4.45,4.9,17.82,17.82,0,0,1,1.53,7.75v4.66H632.87l-.06.17a9.32,9.32,0,0,0,1,3.71,6.29,6.29,0,0,0,2.45,2.56,7.53,7.53,0,0,0,3.84.92,15.41,15.41,0,0,0,4.38-.6,16.9,16.9,0,0,0,4-1.77l2.32,5.27a16.29,16.29,0,0,1-5,2.63A20.66,20.66,0,0,1,639.05,402.22Zm-6.13-19.59h10.59v-.76a9.64,9.64,0,0,0-.51-3.33,4.33,4.33,0,0,0-1.64-2.16,5.13,5.13,0,0,0-2.92-.76,4.64,4.64,0,0,0-2.88.89,5.91,5.91,0,0,0-1.83,2.45,13.06,13.06,0,0,0-.9,3.52Z" transform="translate(0)"/><path class="cls-3" d="M654.45,401.61v-5.14l4.14-.88v-33.7L654,361v-5.16h13.14v39.74l4.14.88v5.14Z" transform="translate(0)"/><path class="cls-3" d="M673.61,401.61v-5.14l4.13-.88v-33.7l-4.57-.88v-5.16h13.14v39.74l4.13.88v5.14Z" transform="translate(0)"/><text class="cls-4" transform="translate(48.47 454.76)">Indian Institute of Technology Dharwad</text></g></g></svg>