<svg xmlns="http://www.w3.org/2000/svg" viewBox="0 0 691.38 312.24"><defs><style>.cls-1{fill:#939598}.cls-2{fill:#bcbec0}.cls-3{fill:#6d6e71}</style></defs><title>CDC_Logo_darkbg</title><g id="Layer_2" data-name="Layer 2"><g id="Layer_2-2" data-name="Layer 2"><path d="M464.49,89.21H234.18V0h89.21A156.12,156.12,0,0,1,464.49,89.21Z" class="cls-1"/><path d="M479.51,156.12a156.31,156.31,0,0,1-6.46,44.6H234.18V111.51H473.05A156.43,156.43,0,0,1,479.51,156.12Z" class="cls-1"/><path d="M464.49,223a156.14,156.14,0,0,1-141.1,89.21H234.18V223Z" class="cls-1"/><path d="M483.37,156.12a156.31,156.31,0,0,0,6.46,44.6H400.62a157.22,157.22,0,0,1,0-89.21h89.21A156.43,156.43,0,0,0,483.37,156.12Z" class="cls-2"/><path d="M691.38,223a156.61,156.61,0,0,1-96.48,82.75h0A156.36,156.36,0,0,1,409.18,223Z" class="cls-2"/><path d="M691.38,89.21H409.18A156.36,156.36,0,0,1,594.87,6.46h0A156.61,156.61,0,0,1,691.38,89.21Z" class="cls-2"/><path d="M89.21,156.12a156.31,156.31,0,0,0,6.46,44.6H6.46a157.22,157.22,0,0,1,0-89.21H95.67A156.43,156.43,0,0,0,89.21,156.12Z" class="cls-3"/><path d="M297.22,223a156.63,156.63,0,0,1-96.48,82.75h0A156.36,156.36,0,0,1,15,223Z" class="cls-3"/><path d="M297.22,89.21H15A156.36,156.36,0,0,1,200.71,6.46h0A156.63,156.63,0,0,1,297.22,89.21Z" class="cls-3"/></g></g></svg>